<svg width="103" height="56" viewBox="0 0 103 56" fill="none" xmlns="http://www.w3.org/2000/svg">
<path d="M19.6623 14.8208H23.9797L34.9925 42.2259L45.9822 14.8208H50.3227L36.6548 48.4365H33.284L19.6623 14.8208ZM18.2539 14.8208H22.0634L22.6867 35.3227V48.4365H18.2539V14.8208ZM47.8985 14.8208H51.708V48.4365H47.2751V35.3227L47.8985 14.8208Z" fill="#FFFAF2"/>
<path d="M71.9328 35.2534H62.9517V31.6286H71.9328C73.672 31.6286 75.0804 31.3516 76.1578 30.7975C77.2352 30.2434 78.0202 29.4738 78.5128 28.4887C79.0207 27.5036 79.2747 26.38 79.2747 25.1179C79.2747 23.9635 79.0207 22.8784 78.5128 21.8625C78.0202 20.8467 77.2352 20.0309 76.1578 19.4153C75.0804 18.7842 73.672 18.4687 71.9328 18.4687H63.9906V48.4365H59.5347V14.8208H71.9328C74.4724 14.8208 76.6196 15.2595 78.3742 16.1368C80.1289 17.0141 81.4603 18.2301 82.3684 19.7847C83.2765 21.3238 83.7306 23.0862 83.7306 25.0717C83.7306 27.2266 83.2765 29.0659 82.3684 30.5897C81.4603 32.1135 80.1289 33.2756 78.3742 34.0759C76.6196 34.8609 74.4724 35.2534 71.9328 35.2534Z" fill="#FFFAF2"/>
<path d="M62.5821 46.3284H101V2H2V53.7164H50.7612" stroke="#FFFAF2" stroke-width="4"/>
</svg>
